<svg width="45" height="45" viewBox="0 0 45 45" fill="none" xmlns="http://www.w3.org/2000/svg">
<circle cx="22.5" cy="22.5" r="22.5" fill="white" fill-opacity="0.2"/>
<path d="M30.7968 13.9011C30.3455 13.5401 29.6235 13.3596 29.082 13.6304L11.6636 20.6699C10.9416 20.9407 10.5806 21.7529 10.9416 22.4749C11.1221 22.8359 11.3929 23.1067 11.6636 23.1969L12.7466 23.6482C13.1076 23.8287 13.5589 23.6482 13.7394 23.2872C13.9199 22.9262 13.7394 22.4749 13.2881 22.2944L12.5661 21.9334L29.6235 15.0744C29.7138 15.0744 29.7138 15.0744 29.804 15.0744C29.8943 15.0744 29.8943 15.1646 29.8943 15.2549L26.8257 29.7852C26.8257 29.8755 26.7355 29.9657 26.6452 30.056C26.555 30.056 26.4647 30.056 26.3745 29.9657L20.2374 25.2727L26.194 19.2259C26.4647 18.9552 26.4647 18.4136 26.194 18.1429C25.9232 17.8721 25.5622 17.8721 25.2915 18.0526L16.5372 23.1969C16.1762 23.3774 15.9956 23.8287 16.1762 24.1897C16.3567 24.5507 16.8079 24.7312 17.1689 24.5507C17.2592 24.5507 17.2592 24.4604 17.2592 24.4604L20.9594 22.2944L19.1544 24.0994C18.5227 24.6409 18.5227 25.6337 19.0642 26.2655C19.1544 26.3557 19.2447 26.3557 19.2447 26.446L25.2915 31.139C25.6525 31.4097 26.0135 31.5 26.3745 31.5C26.555 31.5 26.8257 31.5 27.0062 31.4097C27.638 31.2292 27.999 30.6877 28.1795 30.056L31.248 15.5256C31.5188 14.9841 31.3383 14.3524 30.7968 13.9011Z" fill="white"/>
</svg>
