<svg width="45" height="45" viewBox="0 0 45 45" fill="none" xmlns="http://www.w3.org/2000/svg">
<circle cx="22.5" cy="22.5" r="22.5" fill="white" fill-opacity="0.2"/>
<path d="M32.9286 16.1426C32.8398 16.0539 32.8398 16.0539 32.751 15.9651C32.9286 15.61 33.0173 15.2549 33.1061 14.8998C33.1949 14.6335 33.0173 14.2785 32.751 14.1009C32.4847 13.9234 32.1296 13.9234 31.8633 14.1009C31.3307 14.456 30.7093 14.7223 30.0879 14.8111C28.5788 13.3907 26.3595 13.1244 24.4953 14.0121C22.5424 14.9886 21.5659 17.2079 22.0985 19.3384C22.1873 19.7822 22.6311 20.0486 23.075 19.9598C23.5189 19.871 23.7852 19.4272 23.6964 18.9833C23.3413 17.563 23.9627 16.1426 25.2943 15.4325C26.6258 14.7223 28.3125 15.0774 29.289 16.2314C29.4665 16.409 29.7328 16.4977 29.9991 16.409H30.1767C29.9104 16.764 29.9104 17.2079 30.1767 17.563C30.2654 17.6517 30.3542 17.6517 30.443 17.7405C30.2654 17.9181 30.0879 18.1844 30.1767 18.4507C30.443 21.824 29.0226 25.1973 26.3595 27.3278C23.6076 29.7246 19.7905 30.346 16.4172 29.1032C17.7487 28.8369 18.9915 28.3042 19.968 27.4165C20.1456 27.1502 20.2343 26.8839 20.0568 26.5288C19.8792 26.2625 19.6129 26.085 19.3466 26.085C18.4589 26.085 17.5712 25.6411 16.9498 25.0197C17.2161 24.931 17.4824 24.8422 17.7487 24.7534C18.0151 24.5759 18.1926 24.3096 18.1926 23.9545C18.1926 23.5994 17.9263 23.3331 17.5712 23.3331C16.506 23.0668 15.6182 22.3566 15.1744 21.3801C15.3519 21.3801 15.5295 21.3801 15.7958 21.4689C16.1509 21.4689 16.4172 21.2914 16.5947 21.025C16.6835 20.67 16.5947 20.3149 16.3284 20.1373C14.9969 18.9833 14.7305 17.6517 14.9081 16.764C16.4172 18.3619 18.2814 19.4272 20.4119 19.871C20.8557 19.9598 21.2996 19.6935 21.3884 19.2496C21.4771 18.8058 21.2108 18.3619 20.767 18.2731C18.6365 17.7405 16.7723 16.5865 15.4407 14.8111C15.2632 14.6335 15.0856 14.5448 14.8193 14.5448C14.553 14.5448 14.3755 14.6335 14.1979 14.8111C13.1327 16.1426 13.0439 18.0956 13.9316 19.5159H13.8428C13.5765 19.6047 13.4877 19.871 13.399 20.1373C13.399 21.4689 13.9316 22.8005 14.9081 23.6882C14.7305 23.8657 14.6418 24.2208 14.7305 24.4871C15.1744 25.7299 16.0621 26.7064 17.2161 27.3278C15.9733 27.7716 14.6418 28.0379 13.399 28.0379C12.9551 28.0379 12.6 28.393 12.6 28.8369C12.6 29.1032 12.7776 29.3695 12.9551 29.547C14.9968 30.7898 17.3049 31.5 19.6129 31.5C22.3648 31.5 25.028 30.4347 27.1585 28.6593C30.0879 26.2625 31.7745 22.7117 31.597 18.8945C32.2184 18.4507 32.6623 17.8293 32.8398 17.1191C33.1949 16.5865 33.1061 16.3202 32.9286 16.1426Z" fill="white"/>
</svg>
